<?xml version="1.0" encoding="utf-8"?>
<!-- Generator: Adobe Illustrator 24.3.0, SVG Export Plug-In . SVG Version: 6.00 Build 0)  -->
<svg version="1.1" id="Layer_1" xmlns="http://www.w3.org/2000/svg" xmlns:xlink="http://www.w3.org/1999/xlink" x="0px" y="0px"
	 viewBox="0 0 80 80" style="enable-background:new 0 0 80 80;" xml:space="preserve">
<style type="text/css">
	.st0{fill:#C6C6C6;}
	.st1{fill:#E2E2E2;}
	.st2{fill:#79CCB8;}
	.st3{fill:#3DAA9D;}
</style>
<g>
	<path class="st0" d="M59.9,36.2c-3.5-2.2-8.2-1.1-10.4,2.4c-2.2,3.5-0.6,15.2-0.6,15.2s11.2-3.7,13.4-7.3
		C64.5,43,63.4,38.4,59.9,36.2z M58.9,45.1c-1.2,2-7.5,4.1-7.5,4.1s-0.9-6.6,0.3-8.6c1.2-2,3.8-2.6,5.8-1.4
		C59.5,40.5,60.1,43.1,58.9,45.1z"/>
	<path class="st1" d="M30.8,38.9c2.9,1.9,7.5,1.9,10.4,0c2.8-1.9,7.4-1.9,10.3,0V31h-31v7.9C23.3,37,27.9,37,30.8,38.9z"/>
	<g>
		<path class="st2" d="M20.1,16c6.4,8.4-2.3,18,11.7,16.5C40.3,23.6,28.3,18,20.1,16z"/>
		<path class="st2" d="M38.1,34.3c10,4.1,8.6-6.3,14.3-9.5C48.1,23.7,35.5,23.9,38.1,34.3z"/>
	</g>
	<path class="st3" d="M32.7,43c0,0-0.1,0-0.1,0c-0.4-0.1-0.7-0.4-0.6-0.8c1.3-8.7-3.4-15.7-7-20.2c-0.3-0.3-0.2-0.8,0.1-1.1
		c0.3-0.3,0.8-0.2,1.1,0.1c2.2,2.7,8.8,10.9,7.4,21.3C33.3,42.7,33,43,32.7,43z"/>
	<path class="st3" d="M35.9,42.8C35.9,42.8,35.9,42.8,35.9,42.8c-0.5,0-0.8-0.4-0.7-0.8c0.9-9.9,8.8-14.1,11.4-15.5
		c0.4-0.2,0.8-0.1,1,0.3c0.2,0.4,0.1,0.8-0.3,1c-4.2,2.2-9.8,6.2-10.6,14.3C36.6,42.5,36.3,42.8,35.9,42.8z"/>
	<path class="st2" d="M41.1,38.9c-2.9,1.9-7.5,1.9-10.4,0c-2.9-1.9-7.5-1.9-10.4,0v11.4c0,6.2,5.1,11.2,11.2,11.2h8.5
		c6.2,0,11.2-5.1,11.2-11.2V38.9C48.6,37,44,37,41.1,38.9z"/>
	<path class="st0" d="M16.5,59.6c0,2.4,2,4.4,4.4,4.4h30c2.4,0,4.4-2,4.4-4.4H16.5z"/>
</g>
</svg>
